{"title":"Friends Season 6 Episode 3 720p","uid":7116648,"size":545841211,"categoryP":"video","categoryS":"hd___tv_shows","magnet":"?xt=urn:btih:be1ed0f16245c96f9cbcea3a42386423ab175461&amp;dn=Friends+Season+6+Episode+3+720p&amp;tr=udp%3A%2F%2Ftracker.openbittorrent.com%3A80&amp;tr=udp%3A%2F%2Fopen.demonii.com%3A1337&amp;tr=udp%3A%2F%2Ftracker.coppersurfer.tk%3A6969&amp;tr=udp%3A%2F%2Fexodus.desync.com%3A6969","seeders":0,"leechers":1,"uploader":"tyl3rdurd3n","files":1,"time":1332236676,"description":"Episode 3 of season 6 is &quot;The One with Ross' Denial.&quot;\n\n\n\nGeneral\n\nFormat                           : Matroska\nFormat version                   : Version 2\nFile size                        : 521 MiB\nDuration                         : 20mn 56s\nOverall bit rate                 : 3 475 Kbps\nEncoded date                     : UTC 2012-03-20 08:35:55\nWriting application              : mkvmerge v5.2.0 ('I can't explain') built on Dec 18 2011 18:12:03\nWriting library                  : libebml v1.2.3 + libmatroska v1.3.0\n\nVideo\nID                               : 1\nFormat                           : AVC\nFormat/Info                      : Advanced Video Codec\nFormat profile                   : &lt;a class=&quot;__cf_email__&quot; href=&quot;/cdn-cgi/l/email-protection&quot; data-cfemail=&quot;6820010f0028245c4659&quot;&gt;[email&amp;#160;protected]&lt;/a&gt;&lt;script cf-hash='f9e31' type=&quot;text/javascript&quot;&gt;\n/* &lt;![CDATA[ */!function(){try{var t=&quot;currentScript&quot;in document?document.currentScript:function(){for(var t=document.getElementsByTagName(&quot;script&quot;),e=t.length;e--;)if(t[e].getAttribute(&quot;cf-hash&quot;))return t[e]}();if(t&amp;&amp;t.previousSibling){var e,r,n,i,c=t.previousSibling,a=c.getAttribute(&quot;data-cfemail&quot;);if(a){for(e=&quot;&quot;,r=parseInt(a.substr(0,2),16),n=2;a.length-n;n+=2)i=parseInt(a.substr(n,2),16)^r,e+=String.fromCharCode(i);e=document.createTextNode(e),c.parentNode.replaceChild(e,c)}}}catch(u){}}();/* ]]&gt; */&lt;/script&gt;\nFormat settings, CABAC           : Yes\nFormat settings, ReFrames        : 8 frames\nMuxing mode                      : Header stripping\nCodec ID                         : V_MPEG4/ISO/AVC\nDuration                         : 20mn 56s\nBit rate                         : 3 282 Kbps\nWidth                            : 1 280 pixels\nHeight                           : 720 pixels\nDisplay aspect ratio             : 16:9\nFrame rate                       : 25.000 fps\nColor space                      : YUV\nChroma subsampling               : 4:2:0\nBit depth                        : 8 bits\nScan type                        : Progressive\nBits/(Pixel*Frame)               : 0.142\nStream size                      : 481 MiB \nWriting library                  : x264 core 116 r2074 2641b9e\nLanguage                         : English\n\nAudio\nID                               : 2\nFormat                           : AC-3\nFormat/Info                      : Audio Coding 3\nMode extension                   : CM (complete main)\nMuxing mode                      : Header stripping\nCodec ID                         : A_AC3\nDuration                         : 20mn 56s\nBit rate mode                    : Constant\nBit rate                         : 192 Kbps\nChannel(s)                       : 2 channels\nChannel positions                : Front: L R\nSampling rate                    : 48.0 KHz\nBit depth                        : 16 bits\nCompression mode                 : Lossy\nStream size                      : 28.8 MiB (6%)\nLanguage                         : English\n","torrent":{"xt":"urn:btih:be1ed0f16245c96f9cbcea3a42386423ab175461","amp;dn":"Friends+Season+6+Episode+3+720p","amp;tr":["udp%3A%2F%2Ftracker.openbittorrent.com%3A80","udp%3A%2F%2Fopen.demonii.com%3A1337","udp%3A%2F%2Ftracker.coppersurfer.tk%3A6969","udp%3A%2F%2Fexodus.desync.com%3A6969"],"infoHash":"be1ed0f16245c96f9cbcea3a42386423ab175461","infoHashBuffer":{"type":"Buffer","data":[190,30,208,241,98,69,201,111,156,188,234,58,66,56,100,35,171,23,84,97]},"announce":[],"urlList":[]}}